<?xml version="1.0" encoding="utf-8"?>
<!-- Generator: Adobe Illustrator 27.9.0, SVG Export Plug-In . SVG Version: 6.00 Build 0)  -->
<svg version="1.1" id="Layer_1" xmlns="http://www.w3.org/2000/svg" xmlns:xlink="http://www.w3.org/1999/xlink" x="0px" y="0px"
	 viewBox="0 0 220 220" style="enable-background:new 0 0 220 220;" xml:space="preserve">
<style type="text/css">
	.st0{fill:none;}
	.st1{fill:#FFFFFF;}
	.st2{opacity:8.000000e-02;}
	.st3{fill:#FF3D63;}
	.st4{fill:#FF7953;}
	.st5{fill:#FFB74D;}
	.st6{fill:#FFE671;}
	.st7{fill:#9FE88E;}
	.st8{fill:#72EDED;}
	.st9{fill:#5568F9;}
	.st10{fill:#C7FC77;}
	.st11{fill:#6FD7A6;}
	.st12{fill:#6BA6FC;}
	.st13{fill:#D843F7;}
	.st14{fill:#F42F89;}
	.st15{fill:#27375D;}
	.st16{fill:none;stroke:#F3A606;stroke-width:6;stroke-miterlimit:10;}
</style>
<g>
	<g>
		<g>
			<path class="st1" d="M83.8,60.4c-2.9,6.7-2.9,14.3-0.1,21.1H40.6c-1.8,0-3.2-1.4-3.2-3.2V63.6c0-1.8,1.4-3.2,3.2-3.2H83.8z"/>
			<path class="st1" d="M182.6,63.6v14.7c0,1.8-1.4,3.2-3.2,3.2h-45.7c2.8-6.7,2.7-14.4-0.1-21.1h45.8
				C181.2,60.4,182.6,61.8,182.6,63.6z"/>
			<path class="st1" d="M132.7,83.7H84.8c-4.2-8-4.2-17.7,0.2-25.6h47.6C136.9,66.1,136.9,75.8,132.7,83.7z"/>
		</g>
		<path class="st1" d="M97.2,58.2h25.6v25.6H97.2V58.2z"/>
		<path class="st1" d="M110,58.2h12.8v25.6H110V58.2z"/>
		<path class="st1" d="M128.5,100.2l7.6-7.6l11.6,11.6l-7.6,7.6L128.5,100.2z"/>
		<path class="st1" d="M172.1,129.2l-7.1,7c-1.1,1.1-2.9,1.1-4,0l-20.6-20.7c-1.1-1.1-1.1-2.9,0-4l7.1-7c1.1-1.1,2.9-1.1,4,0
			l20.6,20.7C173.2,126.3,173.2,128.1,172.1,129.2z"/>
		<path class="st1" d="M140.1,54c-1.6-2.9-3.6-5.7-6.1-8.2c-14-14-36.6-14-50.6,0c-2.5,2.5-4.5,5.2-6.1,8.2
			c-5.7,10.5-5.8,23.2-0.2,33.8c1.6,3.1,3.8,6,6.4,8.6c14,14,36.6,14,50.6,0c2.6-2.6,4.7-5.5,6.4-8.6C146,77.2,145.9,64.5,140.1,54z
			 M132.7,83.7c-1.2,2.3-2.8,4.6-4.8,6.5c-10.6,10.6-27.7,10.6-38.3,0c-2-2-3.6-4.2-4.8-6.5c-4.2-8-4.2-17.7,0.2-25.6
			c1.2-2.2,2.8-4.3,4.6-6.2c10.6-10.6,27.7-10.6,38.3,0c1.9,1.9,3.4,4,4.6,6.2C136.9,66.1,136.9,75.8,132.7,83.7z"/>
		<g class="st2">
			<path class="st3" d="M62.1,184.6H54c-1.4,0-2.6-1.2-2.6-2.6v-24c0-1.4,1.2-2.6,2.6-2.6h8.1c1.4,0,2.6,1.2,2.6,2.6v24
				C64.7,183.5,63.6,184.6,62.1,184.6z"/>
			<path class="st4" d="M60.6,155.5h9.1v29.2h-9.1V155.5z"/>
			<path class="st5" d="M69.7,155.5h9.1v29.2h-9.1V155.5z"/>
			<path class="st6" d="M78.8,155.5h9.1v29.2h-9.1V155.5z"/>
			<path class="st7" d="M97,155.5h9.1v29.2H97V155.5z"/>
			<path class="st8" d="M115.2,155.5h9.1v29.2h-9.1V155.5z"/>
			<path class="st9" d="M133.4,155.5h9.1v29.2h-9.1V155.5z"/>
			<path class="st10" d="M87.9,155.5H97v29.2h-9.1V155.5z"/>
			<path class="st11" d="M106.1,155.5h9.1v29.2h-9.1V155.5z"/>
			<path class="st12" d="M124.3,155.5h9.1v29.2h-9.1V155.5z"/>
			<path class="st13" d="M142.5,155.5h9.1v29.2h-9.1V155.5z"/>
			<path class="st14" d="M151.6,184.6v-29.2h6.5c1.4,0,2.6,1.2,2.6,2.6v24c0,1.4-1.2,2.6-2.6,2.6H151.6z"/>
		</g>
		<path class="st15" d="M179.4,58.2h-34.9c-0.7-1.8-1.4-3.6-2.4-5.2c-1.7-3.2-3.9-6.1-6.5-8.7c-7.2-7.2-16.7-11.1-26.9-11.1
			S89,37,81.8,44.2c-2.6,2.6-4.8,5.5-6.5,8.7c-0.9,1.7-1.7,3.4-2.4,5.2h-8.1c-1.3,0-2.3,1-2.3,2.3c0,1.3,1,2.3,2.3,2.3h6.7
			c-1.2,5.4-1.3,11.1-0.1,16.5h-31c-0.5,0-0.9-0.4-0.9-0.9V63.6c0-0.5,0.4-0.9,0.9-0.9h14.2c1.3,0,2.3-1,2.3-2.3
			c0-1.3-1-2.3-2.3-2.3H40.6c-3,0-5.5,2.4-5.5,5.5v14.7c0,3,2.5,5.5,5.5,5.5h32.3c0.6,1.8,1.4,3.5,2.2,5.1c1.8,3.4,4,6.5,6.8,9.2
			c7.4,7.4,17.1,11.2,26.9,11.2c6.9,0,13.7-1.9,19.9-5.6l8.8,8.8c-0.4,1.7,0,3.5,1.3,4.9l2.8,2.8c0.9,0.9,2.3,0.9,3.2,0
			c0.9-0.9,0.9-2.3,0-3.2L142,114c-0.2-0.2-0.2-0.6,0-0.8l7.1-7.1c0.2-0.2,0.6-0.2,0.8,0l20.7,20.7c0.2,0.2,0.2,0.6,0,0.8l-7.1,7.1
			c-0.1,0.1-0.3,0.2-0.4,0.2s-0.3,0-0.4-0.2l-11.5-11.5c-0.9-0.9-2.3-0.9-3.2,0c-0.9,0.9-0.9,2.3,0,3.2l11.5,11.5
			c1,1,2.3,1.5,3.6,1.5c1.4,0,2.7-0.5,3.6-1.5l7.1-7.1c2-2,2-5.2,0-7.2L153,102.9c-1.3-1.3-3.2-1.8-4.9-1.3l-8.4-8.4
			c1-1.4,1.8-2.8,2.6-4.3c0.9-1.6,1.6-3.3,2.2-5.1h34.8c3,0,5.5-2.5,5.5-5.5V63.6C184.9,60.6,182.4,58.2,179.4,58.2z M140.1,108.6
			l-7.7-7.7c1.1-0.9,2.2-1.9,3.2-2.9c0.4-0.4,0.9-0.9,1.3-1.3l7.6,7.6L140.1,108.6z M138.4,86.7c-1,1.8-2.1,3.6-3.4,5.2
			c-0.8,1-1.7,2-2.6,2.9c-1.5,1.5-3.1,2.8-4.8,4c-13.3,9.1-31.2,7.4-42.6-4c-2.4-2.4-4.4-5.1-6-8.1c-1-1.9-1.8-3.9-2.4-5.9
			c0,0,0,0,0,0c0,0,0,0,0,0c-1.9-6.5-1.9-13.3,0.1-19.7c0,0,0,0,0,0c0.6-2.1,1.5-4.1,2.6-6c1.5-2.8,3.4-5.4,5.7-7.6
			c6.3-6.3,14.7-9.8,23.7-9.8c8.9,0,17.4,3.5,23.7,9.8c2.3,2.3,4.2,4.8,5.7,7.6c1,1.9,1.9,3.9,2.6,6v0c2,6.4,2.1,13.3,0.1,19.7
			C140.2,82.9,139.4,84.9,138.4,86.7z M180.4,78.3c0,0.5-0.4,0.9-0.9,0.9h-33.5c1.2-5.5,1.2-11.1-0.1-16.5h33.6
			c0.5,0,0.9,0.4,0.9,0.9L180.4,78.3L180.4,78.3z"/>
		<path class="st15" d="M129.5,50.4c-5.5-5.5-12.9-8.6-20.8-8.6S93.5,44.8,88,50.4c-2,2-3.7,4.3-5,6.7c-4.7,8.7-4.8,19-0.2,27.7
			c1.4,2.6,3.1,5,5.2,7.1c5.5,5.5,12.9,8.6,20.8,8.6c7.8,0,15.2-3.1,20.8-8.6c2.1-2.1,3.8-4.5,5.2-7.1c4.6-8.7,4.5-19.1-0.2-27.7
			C133.2,54.6,131.5,52.4,129.5,50.4z M86.2,81.5c-3.1-6.7-3-14.4,0.2-21.1h8.6v21.1H86.2z M120.5,81.5H99.5V60.4h21.1V81.5z
			 M125.1,60.4h6.1c3.2,6.7,3.3,14.3,0.2,21.1h-6.2V60.4z M108.7,46.3c6.6,0,12.9,2.6,17.5,7.3c0.7,0.7,1.4,1.5,2,2.3H89.2
			c0.6-0.8,1.3-1.6,2-2.3C95.9,48.9,102.1,46.3,108.7,46.3z M108.7,95.9c-6.6,0-12.9-2.6-17.5-7.3c-0.8-0.8-1.6-1.7-2.3-2.7h39.7
			c-0.7,0.9-1.5,1.8-2.3,2.7C121.6,93.4,115.4,95.9,108.7,95.9z"/>
		<path class="st15" d="M158.2,153.2H54c-2.7,0-4.9,2.2-4.9,4.9v24c0,2.7,2.2,4.9,4.9,4.9h104.1c2.7,0,4.9-2.2,4.9-4.9v-24
			C163,155.4,160.8,153.2,158.2,153.2z M142.5,176.7c-1.3,0-2.3,1-2.3,2.3v3.4h-4.6v-24.6h4.6v11.5c0,1.3,1,2.3,2.3,2.3
			s2.3-1,2.3-2.3v-11.5h4.6v24.6h-4.6V179C144.8,177.7,143.8,176.7,142.5,176.7z M69.7,171.1c-1.3,0-2.3,1-2.3,2.3v9h-4.6v-24.6h4.6
			v5.9c0,1.3,1,2.3,2.3,2.3c1.3,0,2.3-1,2.3-2.3v-5.9h4.6v24.6h-4.6v-9C71.9,172.1,70.9,171.1,69.7,171.1z M81,157.7h4.6v24.6H81
			V157.7z M90.2,157.7h4.6v24.6h-4.6V157.7z M99.3,157.7h4.6v24.6h-4.6V157.7z M108.4,157.7h4.6v24.6h-4.6V157.7z M117.5,157.7h4.6
			v24.6h-4.6V157.7z M126.6,157.7h4.6v24.6h-4.6V157.7z M53.7,182v-24c0-0.2,0.1-0.3,0.3-0.3h4.2v24.6H54
			C53.9,182.4,53.7,182.2,53.7,182z M158.5,182c0,0.2-0.1,0.3-0.3,0.3h-4.2v-24.6h4.2c0.2,0,0.3,0.1,0.3,0.3V182z"/>
		<path class="st15" d="M70.1,133.9c0.7,0,1.4-0.3,1.8-0.9l0.1-0.1c0.7-1,0.5-2.4-0.5-3.2c-1-0.7-2.4-0.5-3.2,0.5l-0.1,0.1
			c-0.7,1-0.5,2.4,0.5,3.2C69.2,133.8,69.6,133.9,70.1,133.9z"/>
		<path class="st15" d="M86.3,110.6c0.7,0,1.4-0.3,1.8-0.8l0.1-0.1c0.7-0.8,0.5-2-0.5-2.6c-1-0.6-2.4-0.4-3.2,0.4l-0.1,0.1
			c-0.7,0.8-0.5,2,0.5,2.6C85.4,110.5,85.9,110.6,86.3,110.6z"/>
		<path class="st15" d="M79.6,118.5c0.4,0.3,0.9,0.4,1.3,0.4c0.7,0,1.4-0.3,1.8-0.9l0.1-0.1c0.7-1,0.5-2.4-0.5-3.2
			c-1-0.7-2.4-0.5-3.2,0.5l-0.1,0.1C78.3,116.3,78.6,117.8,79.6,118.5z"/>
		<path class="st15" d="M64.7,141.4c0.7,0,1.4-0.3,1.8-0.9l0.1-0.1c0.7-1,0.5-2.4-0.5-3.2c-1-0.7-2.4-0.5-3.2,0.5l-0.1,0.1
			c-0.7,1-0.5,2.4,0.5,3.2C63.8,141.2,64.2,141.4,64.7,141.4z"/>
		<path class="st15" d="M59.3,148.8c0.7,0,1.4-0.3,1.8-0.9l0.1-0.1c0.7-1,0.5-2.4-0.5-3.2c-1-0.7-2.4-0.5-3.2,0.5l-0.1,0.1
			c-0.7,1-0.5,2.4,0.5,3.2C58.4,148.7,58.8,148.8,59.3,148.8z"/>
		<path class="st15" d="M75.5,126.4c0.7,0,1.4-0.3,1.8-0.9l0.1-0.1c0.7-1,0.5-2.4-0.5-3.2c-1-0.7-2.4-0.5-3.2,0.5l-0.1,0.1
			c-0.7,1-0.5,2.4,0.5,3.2C74.6,126.3,75,126.4,75.5,126.4z"/>
		<path class="st15" d="M147.3,141.4c0.5,0,0.9-0.1,1.3-0.4c1-0.7,1.2-2.2,0.5-3.2l-0.1-0.1c-0.7-1-2.2-1.2-3.2-0.5
			c-1,0.7-1.2,2.2-0.5,3.2l0.1,0.1C145.9,141,146.6,141.4,147.3,141.4z"/>
		<path class="st15" d="M141.9,133.9c0.5,0,0.9-0.1,1.3-0.4c1-0.7,1.2-2.2,0.5-3.2l-0.1-0.1c-0.7-1-2.2-1.2-3.2-0.5
			c-1,0.7-1.2,2.2-0.5,3.2l0.1,0.1C140.5,133.6,141.2,133.9,141.9,133.9z"/>
		<path class="st15" d="M152.7,148.8c0.5,0,0.9-0.1,1.3-0.4c1-0.7,1.2-2.2,0.5-3.2l-0.1-0.1c-0.7-1-2.2-1.2-3.2-0.5
			c-1,0.7-1.2,2.2-0.5,3.2l0.1,0.1C151.3,148.5,152,148.8,152.7,148.8z"/>
		<path class="st15" d="M125.6,111.5c0.5,0,0.9-0.1,1.3-0.4c1-0.7,1.2-2.2,0.5-3.2l-0.1-0.1c-0.7-1-2.2-1.2-3.2-0.5
			c-1,0.7-1.2,2.2-0.5,3.2l0.1,0.1C124.2,111.1,124.9,111.5,125.6,111.5z"/>
		<path class="st15" d="M136.5,126.4c0.5,0,0.9-0.1,1.3-0.4c1-0.7,1.2-2.2,0.5-3.2l-0.1-0.1c-0.7-1-2.2-1.2-3.2-0.5
			c-1,0.7-1.2,2.2-0.5,3.2l0.1,0.1C135.1,126.1,135.7,126.4,136.5,126.4z"/>
		<path class="st15" d="M131,118.9c0.5,0,0.9-0.1,1.3-0.4c1-0.7,1.2-2.2,0.5-3.2l-0.1-0.1c-0.7-1-2.2-1.2-3.2-0.5
			c-1,0.7-1.2,2.2-0.5,3.2l0.1,0.1C129.6,118.6,130.3,118.9,131,118.9z"/>
	</g>
	<circle class="st16" cx="108.4" cy="71" r="26.9"/>
</g>
</svg>
