<?xml version="1.0" encoding="utf-8"?>
<!-- Generator: Adobe Illustrator 27.9.0, SVG Export Plug-In . SVG Version: 6.00 Build 0)  -->
<svg version="1.1" id="Layer_1" xmlns="http://www.w3.org/2000/svg" xmlns:xlink="http://www.w3.org/1999/xlink" x="0px" y="0px"
	 viewBox="0 0 220 220" style="enable-background:new 0 0 220 220;" xml:space="preserve">
<style type="text/css">
	.st0{fill:none;}
	.st1{fill:#FFFFFF;}
	.st2{fill:#F9B130;}
	.st3{fill:#E4EAF7;}
	.st4{fill:#27375D;}
</style>
<g>
	<path class="st1" d="M42.3,123.4l3.3,8.9l8.7,13.4c2.8,3.3,6.4,6,10.3,7.9c4.5,2.1,9.1,4.7,12.4,8.2c2.1,2.3,3.4,5.3,3.6,16.3h22.9
		v-13.2c-0.8-7.8-3.7-16.6-12.9-19.8l-8.1-2.8l-14.3-12.1c-1.3-1.1-3.2-1-4.5,0.2c-1.2,1.2-1.3,3.2-0.1,4.6l6.2,6.7l-10.9-5
		l-6.8-8.3l-3-7.6c-0.7-1.7-2.5-2.7-4.3-2.2C42.7,119,41.5,121.3,42.3,123.4z"/>
	<path class="st2" d="M90.7,145.1l-8.1-2.8l-14.3-12.1c-1.3-1.1-3.2-1-4.5,0.2c-1.2,1.2-1.3,3.2-0.1,4.6l6.2,6.7l6.4,3.5
		c9.1,3.1,12.1,11.9,12.9,19.8v13.2h14.4v-13.2C102.7,157.1,99.8,148.3,90.7,145.1z"/>
	<path class="st1" d="M79.8,169.7h24.4c1.2,0,2.1,0.9,2.1,2.1v6.2c0,1.2-0.9,2.1-2.1,2.1H79.8c-1.2,0-2.1-0.9-2.1-2.1v-6.2
		C77.7,170.6,78.7,169.7,79.8,169.7z"/>
	<path class="st2" d="M104.2,169.7H92v10.4h12.2c1.2,0,2.1-0.9,2.1-2.1v-6.2C106.3,170.6,105.4,169.7,104.2,169.7z"/>
	<path class="st1" d="M177.7,123.4l-3.3,8.9l-8.7,13.4c-2.8,3.3-6.4,6-10.3,7.9c-4.5,2.1-9.1,4.7-12.4,8.2
		c-2.1,2.3-3.4,5.3-3.6,16.3h-22.9v-13.2c0.8-7.8,3.7-16.6,12.9-19.8l8.1-2.8l14.3-12.1c1.3-1.1,3.2-1,4.5,0.2
		c1.2,1.2,1.3,3.2,0.1,4.6l-6.2,6.7l10.9-5l6.8-8.3l3-7.6c0.7-1.7,2.5-2.7,4.3-2.2C177.3,119,178.5,121.3,177.7,123.4z"/>
	<path class="st2" d="M176,118.8l-5,11.4l-9,11.4c-2.8,3.3-16.8,10.1-20.8,11.9c-4.5,2.1-9.1,4.7-12.4,8.2
		c-2.1,2.3-3.4,5.3-3.6,16.3h14.2c0.2-11.1,1.4-14,3.6-16.3c3.3-3.6,8-6.1,12.4-8.2c4-1.8,7.5-4.5,10.3-7.9l8.7-13.4l3.3-8.9
		C178.4,121.6,177.6,119.7,176,118.8z"/>
	<path class="st1" d="M140.2,169.7h-24.4c-1.2,0-2.1,0.9-2.1,2.1v6.2c0,1.2,0.9,2.1,2.1,2.1h24.4c1.2,0,2.1-0.9,2.1-2.1v-6.2
		C142.3,170.6,141.3,169.7,140.2,169.7z"/>
	<path class="st2" d="M140.2,169.7H128v10.4h12.2c1.2,0,2.1-0.9,2.1-2.1v-6.2C142.3,170.6,141.3,169.7,140.2,169.7z"/>
	<path class="st1" d="M143.6,105c0,18.5-15,33.6-33.6,33.6c-18.5,0-33.6-15-33.6-33.6s15-33.6,33.6-33.6
		C128.5,71.4,143.6,86.4,143.6,105z"/>
	<path class="st1" d="M135.9,105c0,14.3-11.6,25.9-25.9,25.9c-14.3,0-25.9-11.6-25.9-25.9S95.7,79.1,110,79.1
		C124.3,79.1,135.9,90.7,135.9,105z"/>
	<path class="st2" d="M110,79.1c-2.5,0-4.8,0.3-7.1,1c10.9,3.1,18.8,13.1,18.8,25s-8,21.9-18.8,25c2.3,0.6,4.6,1,7.1,1
		c14.3,0,25.9-11.6,25.9-25.9C135.9,90.7,124.3,79.1,110,79.1z"/>
	<g>
		<path class="st3" d="M158.5,65.2l2.6,6.9l7.3,0.3c0.8,0,1.1,1,0.5,1.6l-5.7,4.6l1.9,7.1c0.2,0.8-0.6,1.4-1.3,1l-6.1-4l-6.1,4
			c-0.7,0.4-1.5-0.2-1.3-1l1.9-7.1l-5.7-4.6c-0.6-0.5-0.3-1.5,0.5-1.6l7.3-0.3l2.6-6.9C157.2,64.5,158.3,64.5,158.5,65.2z"/>
		<path class="st3" d="M63.1,65.2l2.6,6.9l7.3,0.3c0.8,0,1.1,1,0.5,1.6l-5.7,4.6l1.9,7.1c0.2,0.8-0.6,1.4-1.3,1l-6.1-4l-6.1,4
			c-0.7,0.4-1.5-0.2-1.3-1l1.9-7.1L51.1,74c-0.6-0.5-0.3-1.5,0.5-1.6l7.3-0.3l2.6-6.9C61.7,64.5,62.8,64.5,63.1,65.2z"/>
		<path class="st3" d="M110.8,40.5l2.6,6.9l7.3,0.3c0.8,0,1.1,1,0.5,1.6l-5.7,4.6l1.9,7.1c0.2,0.8-0.6,1.4-1.3,1l-6.1-4l-6.1,4
			c-0.7,0.4-1.5-0.2-1.3-1l1.9-7.1l-5.7-4.6c-0.6-0.5-0.3-1.5,0.5-1.6l7.3-0.3l2.6-6.9C109.5,39.7,110.5,39.7,110.8,40.5z"/>
	</g>
	<path class="st4" d="M105.6,167.8v-2.9c0-0.1,0-0.1,0-0.2c-1.1-11.3-6.1-18.7-14.3-21.6l-7.8-2.7l-14-11.9
		c-2.1-1.8-5.3-1.7-7.3,0.3c-1.8,1.8-2.1,4.5-0.9,6.6l-1.1-0.5l-6.3-7.6l-2.9-7.3c-1-2.7-3.9-4.2-6.7-3.5c-1.6,0.4-3,1.4-3.8,2.9
		c-0.8,1.5-0.9,3.2-0.3,4.8l3.3,8.9c0.1,0.1,0.1,0.3,0.2,0.4l8.7,13.4c0,0.1,0.1,0.1,0.2,0.2c3,3.6,6.8,6.5,11.1,8.4
		c3.5,1.6,8.5,4.1,11.8,7.7c0.9,0.9,1.7,2,2.2,5c-1.2,0.7-2.1,2.1-2.1,3.6v6.2c0,2.3,1.9,4.2,4.2,4.2h24.4c2.3,0,4.2-1.9,4.2-4.2
		v-6.2C108.4,169.9,107.3,168.4,105.6,167.8z M65.5,151.6c-3.6-1.7-6.9-4.2-9.5-7.2l-8.5-13.1l-3.2-8.6c-0.2-0.6,0-1.1,0.1-1.3
		c0.1-0.2,0.4-0.6,1-0.8c0.8-0.2,1.5,0.2,1.8,1l3,7.6c0.1,0.2,0.2,0.4,0.3,0.6l6.8,8.3c0.2,0.2,0.5,0.4,0.7,0.6l10.5,4.8l5.5,6.3
		c0.4,0.5,1,0.7,1.6,0.7c0.5,0,1-0.2,1.4-0.5c0.9-0.8,1-2.1,0.2-3l-5.8-6.6c0,0,0,0,0,0l-6.2-6.7c-0.4-0.5-0.4-1.2,0-1.6
		c0.4-0.4,1.1-0.5,1.6-0.1l14.3,12.1c0.2,0.2,0.4,0.3,0.7,0.4l8.2,2.8c6.6,2.3,10.4,8.3,11.4,17.9v2.6H81.9
		c-0.7-3.7-1.8-5.7-3.3-7.2C74.8,156.2,69.3,153.4,65.5,151.6z M104.2,178H79.9v-6.2h24.4V178z"/>
	<path class="st4" d="M179.4,119.4c-0.8-1.5-2.2-2.5-3.8-2.9c-2.8-0.6-5.7,0.9-6.7,3.5l-2.9,7.3l-6.3,7.6l-1.1,0.5
		c1.2-2.1,0.9-4.8-0.9-6.6c-2-2-5.2-2.1-7.3-0.3l-14,11.9l-7.8,2.7c-8.2,2.8-13.1,10.3-14.3,21.6c0,0.1,0,0.1,0,0.2v2.9
		c-1.6,0.6-2.8,2.1-2.8,4v6.2c0,2.3,1.9,4.2,4.2,4.2h24.4c2.3,0,4.2-1.9,4.2-4.2v-6.2c0-1.5-0.8-2.9-2.1-3.6c0.6-2.9,1.4-4,2.2-5
		c3.3-3.6,8.3-6.1,11.8-7.7c4.2-1.9,8-4.8,11.1-8.4c0.1-0.1,0.1-0.1,0.2-0.2l8.7-13.4c0.1-0.1,0.2-0.3,0.2-0.4l3.3-8.9
		C180.3,122.6,180.2,120.8,179.4,119.4z M140.1,178h-24.4v-6.2h24.4V178z M175.8,122.7l-3.2,8.6l-8.5,13.1c-2.6,3.1-5.9,5.5-9.5,7.2
		c-3.8,1.8-9.3,4.6-13.1,8.7c-1.5,1.6-2.6,3.5-3.3,7.2h-19.5V165c1-9.6,4.8-15.6,11.4-17.9l8.1-2.8c0.2-0.1,0.5-0.2,0.7-0.4
		l14.3-12.1c0.5-0.4,1.2-0.4,1.6,0.1c0.4,0.4,0.5,1.2,0.1,1.6l-6.2,6.7c0,0,0,0,0,0l-5.8,6.6c-0.8,0.9-0.7,2.2,0.2,3
		c0.4,0.4,0.9,0.5,1.4,0.5c0.6,0,1.2-0.2,1.6-0.7l5.5-6.3l10.5-4.8c0.3-0.1,0.5-0.3,0.7-0.6l6.8-8.3c0.1-0.2,0.3-0.4,0.3-0.6l3-7.6
		c0.3-0.7,1.1-1.1,1.8-1c0.6,0.1,0.9,0.6,1,0.8C175.8,121.6,176,122.1,175.8,122.7z"/>
	<path class="st4" d="M145.2,75.6l4.6,3.7l-1.6,5.7c-0.3,1.2,0.1,2.5,1.1,3.2c0.5,0.4,1.1,0.6,1.8,0.6c0.6,0,1.1-0.2,1.6-0.5
		l4.9-3.3l4.9,3.3c1,0.7,2.4,0.7,3.4-0.1c1-0.7,1.5-2,1.1-3.2l-1.6-5.7l4.6-3.7c1-0.8,1.4-2.1,1-3.3c-0.4-1.2-1.5-2-2.7-2.1
		l-5.9-0.3l-2.1-5.5c-0.4-1.2-1.5-1.9-2.8-1.9c-1.3,0-2.4,0.8-2.8,1.9l-2.1,5.5l-5.9,0.3c-1.3,0.1-2.3,0.9-2.7,2.1
		C143.8,73.6,144.2,74.8,145.2,75.6z M154.4,74.2c0.8,0,1.6-0.6,1.9-1.4l1.4-3.8l1.4,3.8c0.3,0.8,1,1.3,1.9,1.4l4,0.2l-3.1,2.5
		c-0.7,0.5-0.9,1.4-0.7,2.2l1.1,3.9l-3.4-2.2c-0.4-0.2-0.8-0.3-1.2-0.3c-0.4,0-0.8,0.1-1.2,0.3l-3.4,2.2l1.1-3.9
		c0.2-0.8-0.1-1.7-0.7-2.2l-3.1-2.5L154.4,74.2z"/>
	<path class="st4" d="M49.7,75.6l4.6,3.7L52.8,85c-0.3,1.2,0.1,2.5,1.1,3.2c1,0.7,2.4,0.8,3.4,0.1l4.9-3.3l4.9,3.3
		c0.5,0.3,1.1,0.5,1.6,0.5c0.6,0,1.2-0.2,1.8-0.6c1-0.7,1.5-2,1.1-3.2l-1.6-5.7l4.6-3.7c1-0.8,1.4-2.1,1-3.3c-0.4-1.2-1.4-2-2.7-2.1
		L67.2,70l-2.1-5.5c-0.4-1.2-1.5-1.9-2.8-1.9c-1.3,0-2.4,0.8-2.8,1.9L57.4,70l-5.9,0.3c-1.3,0.1-2.3,0.9-2.7,2.1
		C48.4,73.6,48.8,74.8,49.7,75.6z M59,74.2c0.8,0,1.6-0.6,1.9-1.4l1.4-3.8l1.4,3.8c0.3,0.8,1,1.3,1.9,1.4l4,0.2l-3.1,2.5
		c-0.7,0.5-0.9,1.4-0.7,2.2l1.1,3.9l-3.4-2.2c-0.7-0.5-1.6-0.5-2.3,0L57.8,83l1.1-3.9c0.2-0.8-0.1-1.7-0.7-2.2L55,74.4L59,74.2z"/>
	<path class="st4" d="M97.5,50.9l4.6,3.7l-1.6,5.7c-0.3,1.2,0.1,2.5,1.1,3.2c1,0.7,2.4,0.8,3.4,0.1l4.9-3.3l4.9,3.3
		c0.5,0.3,1.1,0.5,1.6,0.5c0.6,0,1.2-0.2,1.8-0.6c1-0.7,1.5-2,1.1-3.2l-1.6-5.7l4.6-3.7c1-0.8,1.4-2.1,1-3.3c-0.4-1.2-1.4-2-2.7-2.1
		l-5.9-0.3l-2.1-5.5c-0.4-1.2-1.5-1.9-2.8-1.9c-1.3,0-2.4,0.8-2.8,1.9l-2.1,5.5l-5.9,0.3c-1.3,0.1-2.3,0.9-2.7,2.1
		C96.1,48.8,96.5,50.1,97.5,50.9z M106.7,49.5c0.8,0,1.6-0.6,1.9-1.4l1.4-3.8l1.4,3.8c0.3,0.8,1,1.3,1.9,1.4l4,0.2l-3.1,2.5
		c-0.7,0.5-0.9,1.4-0.7,2.2l1.1,3.9l-3.3-2.2c-0.4-0.2-0.8-0.3-1.2-0.3s-0.8,0.1-1.2,0.3l-3.4,2.2l1.1-3.9c0.2-0.8-0.1-1.7-0.7-2.2
		l-3.1-2.5L106.7,49.5z"/>
	<path class="st4" d="M145.7,105c0-19.7-16-35.7-35.7-35.7c-19.7,0-35.7,16-35.7,35.7c0,19.7,16,35.7,35.7,35.7
		C129.7,140.7,145.7,124.7,145.7,105z M110,136.5c-17.4,0-31.5-14.1-31.5-31.5c0-17.4,14.1-31.5,31.5-31.5
		c17.4,0,31.5,14.1,31.5,31.5C141.5,122.3,127.4,136.5,110,136.5z"/>
	<path class="st4" d="M84.1,102.8c1.2,0.2,2.2-0.6,2.4-1.7c0.9-5.5,3.7-10.6,8-14.2c4.3-3.7,9.8-5.7,15.5-5.7c5.7,0,11.2,2,15.5,5.7
		c4.3,3.7,7.1,8.7,8,14.2c0.2,1,1.1,1.8,2.1,1.8c0.1,0,0.2,0,0.3,0c1.2-0.2,1.9-1.3,1.7-2.4c-1.1-6.5-4.4-12.4-9.4-16.7
		c-5.1-4.4-11.6-6.7-18.2-6.7c-6.7,0-13.2,2.4-18.2,6.7c-5,4.3-8.4,10.2-9.4,16.7C82.1,101.6,82.9,102.7,84.1,102.8z"/>
	<path class="st4" d="M135.9,107.1c-1.2-0.2-2.2,0.6-2.4,1.7c-0.9,5.5-3.7,10.6-8,14.2c-4.3,3.7-9.8,5.7-15.5,5.7
		c-5.7,0-11.2-2-15.5-5.7c-4.3-3.7-7.1-8.7-8-14.2c-0.2-1.2-1.3-1.9-2.4-1.7c-1.2,0.2-1.9,1.3-1.7,2.4c1.1,6.5,4.4,12.4,9.4,16.7
		c5.1,4.4,11.6,6.7,18.2,6.7c6.7,0,13.2-2.4,18.2-6.7c5-4.3,8.4-10.2,9.4-16.7C137.9,108.4,137.1,107.3,135.9,107.1z"/>
	<path class="st4" d="M110.4,118c0.5,0,1.1-0.4,1.1-0.8v-1.2c3.8-0.5,6.4-2.9,6.4-7.3c0-4.8-3.4-6.4-6.4-7.5v-7.2
		c2.5,0.2,3.4,1.3,4.3,1.3c1.1,0,1.6-1.3,1.6-2c0-1.7-3.4-2.5-5.8-2.6v-1c0-0.4-0.5-0.8-1.1-0.8c-0.6,0-1,0.4-1,0.8v1
		c-3.4,0.4-6.7,2.1-6.7,6.6c0,4.5,3.5,5.8,6.7,6.9v8.3c-3.6-0.3-4.6-2.8-5.7-2.8c-0.9,0-1.6,1.2-1.6,2c0,1.7,3,4.1,7.4,4.2v1.1
		C109.3,117.6,109.8,118,110.4,118z M111.2,105.1c1.7,0.7,3.1,1.7,3.1,4c0,2-1.2,3.2-3.1,3.5V105.1z M106.2,97c0-1.8,1.4-2.7,3.4-3
		v6.4C107.7,99.7,106.2,99,106.2,97z"/>
</g>
</svg>
