<?xml version="1.0" encoding="utf-8"?>
<!-- Generator: Adobe Illustrator 27.9.0, SVG Export Plug-In . SVG Version: 6.00 Build 0)  -->
<svg version="1.1" id="Layer_1" xmlns="http://www.w3.org/2000/svg" xmlns:xlink="http://www.w3.org/1999/xlink" x="0px" y="0px"
	 viewBox="0 0 220 220" style="enable-background:new 0 0 220 220;" xml:space="preserve">
<style type="text/css">
	.st0{fill:none;}
	.st1{fill:#FFBB08;}
	.st2{fill:#27375D;}
</style>
<g>
	<g>
		<path class="st1" d="M131.2,99h3V85.8h-3c-1.4,0-1.9-1-2-1.4c-0.1-0.3-0.5-1.4,0.5-2.4l2.1-2.1l-9.3-9.3l-2.1,2.1
			c-1,1-2.1,0.6-2.4,0.5c-0.3-0.1-1.4-0.7-1.4-2v-3h-13.2v3c0,1.4-1,1.9-1.4,2c-0.3,0.1-1.4,0.5-2.4-0.5l-2.1-2.1L88.2,80l2.1,2.1
			c1,1,0.6,2.1,0.5,2.4c-0.1,0.3-0.7,1.4-2,1.4h-3V99h3c1.4,0,1.9,1,2,1.4c0.1,0.3,0.5,1.4-0.5,2.4l-2.1,2.1l9.3,9.3l2.1-2.1
			c0.4-0.4,0.8-0.6,1.2-0.6l0.4,0.1v-10.4c0-1.4,0.7-2.7,1.8-3.5l0,0c-1.1-1.5-1.8-3.3-1.8-5.3c0-4.9,3.9-8.8,8.8-8.8
			c4.9,0,8.8,3.9,8.8,8.8s-3.9,8.8-8.8,8.8V115l1.4,0.5c0.8-0.7,1.8-1.2,3-1.2c0.8,0,1.5,0.2,2.2,0.6v-1.4c0-1.4,1-1.9,1.4-2
			c0.3-0.1,1.4-0.5,2.4,0.5l2.1,2.1l9.3-9.3l-2.1-2.1c-1-1-0.6-2.1-0.5-2.4C129.3,100,129.9,99,131.2,99L131.2,99z"/>
	</g>
	<g>
		<g>
			<path class="st2" d="M55,93.1V99c0,4.8,3.9,8.8,8.8,8.8s8.8-3.9,8.8-8.8v-5.9l7.5-9.9l5.7,5.7v-3.1h3c0.1,0,0.1,0,0.1,0l-6.2-6.2
				c2-3.4,3.2-7.3,3.2-11.3c0-12.1-9.9-22-22-22s-22,9.9-22,22c0,4.7,1.6,9.4,4.4,13.2L55,93.1z M63.8,103.4c-2.4,0-4.4-2-4.4-4.4
				v-4.4h8.8V99C68.2,101.4,66.3,103.4,63.8,103.4z M63.8,50.6c9.7,0,17.6,7.9,17.6,17.6c0,3.8-1.2,7.5-3.5,10.6l-8.6,11.4h-11
				l-8.6-11.4c-2.3-3-3.5-6.8-3.5-10.6C46.2,58.5,54.1,50.6,63.8,50.6z"/>
			<path class="st2" d="M59.4,63.1c0-2,1.6-3.7,3.7-3.7h1.5c2,0,3.7,1.6,3.7,3.7c0,1.1-0.5,2.2-1.5,2.9l-4.7,3.5
				c-1.7,1.2-2.6,3.2-2.6,5.3V77h4.4v-2.2c0-0.7,0.3-1.3,0.9-1.8l4.7-3.5c2-1.5,3.2-3.9,3.2-6.4c0-4.4-3.6-8.1-8.1-8.1h-1.5
				c-4.4,0-8.1,3.6-8.1,8.1v0.7h4.4V63.1z"/>
			<path class="st2" d="M59.4,81.4h4.4v4.4h-4.4V81.4z"/>
			<path class="st2" d="M107.8,63.6v4.6h4.4v-4.6c5-1,8.8-5.5,8.8-10.8c0-6.1-4.9-11-11-11c-6.1,0-11,4.9-11,11
				C99,58.1,102.8,62.6,107.8,63.6z M110,46.2c3.6,0,6.6,3,6.6,6.6s-3,6.6-6.6,6.6c-3.6,0-6.6-3-6.6-6.6S106.4,46.2,110,46.2z"/>
			<path class="st2" d="M107.8,50.6h4.4V55h-4.4V50.6z"/>
			<path class="st2" d="M156.2,112.2c-11.1,0-20.3,8.3-21.8,19.1l-4.6-4.6v-3.5c0-3.6-3-6.6-6.6-6.6c-0.9,0-1.7,0.2-2.5,0.5
				c-0.8-2.8-3.3-4.9-6.3-4.9c-0.8,0-1.5,0.2-2.2,0.4v-9.4c5-1,8.8-5.5,8.8-10.8c0-6.1-4.9-11-11-11c-6.1,0-11,4.9-11,11
				c0,1.8,0.4,3.5,1.2,5c-0.8,1.1-1.2,2.4-1.2,3.8v16.6c-1.3-0.8-2.8-1.2-4.4-1.2c-2.4,0-4.4,2-4.4,4.4v5.7l-13,13
				C73.6,135,68,132,61.6,132c-10.9,0-19.8,8.9-19.8,19.8s8.9,19.8,19.8,19.8s19.8-8.9,19.8-19.8c0-2.9-0.7-5.7-1.8-8.3l10.6-10.6
				v5.2c0,6.2,2.3,12.1,6.5,16.7l-2.3,23.4h31.2l-2.3-23.4c4.2-4.6,6.5-10.4,6.5-16.7v-5.2l4.7,4.7c0.6,3.5,2,6.9,4.1,9.8l8.8,11.7
				v5.9c0,4.8,3.9,8.8,8.8,8.8s8.8-3.9,8.8-8.8v-5.9l8.8-11.7c2.8-3.8,4.4-8.5,4.4-13.2C178.1,122.1,168.3,112.2,156.2,112.2z
				 M61.6,167.2c-8.5,0-15.4-6.9-15.4-15.4s6.9-15.4,15.4-15.4S77,143.3,77,151.8S70.1,167.2,61.6,167.2z M110,85.8
				c3.6,0,6.6,3,6.6,6.6c0,3-2.1,5.6-4.9,6.3c-1-2.4-3.3-4.1-6.1-4.1c-0.6,0-1.2,0.1-1.7,0.3c-0.3-0.8-0.5-1.6-0.5-2.5
				C103.4,88.8,106.4,85.8,110,85.8z M99.2,173.8l1.8-17.6h18l1.8,17.6H99.2z M125.4,138c0,5.1-1.9,10-5.4,13.7h-20
				c-3.5-3.8-5.4-8.6-5.4-13.7V121c2.4,0,4.4,2,4.4,4.4v4.4h4.4v-4.4v-24.2c0-1.2,1-2.2,2.2-2.2s2.2,1,2.2,2.2v17.6v2.2v8.8h4.4V121
				v-2.2c0-1.2,1-2.2,2.2-2.2c1.2,0,2.2,1,2.2,2.2v4.4v2.2v4.4h4.4v-4.4v-2.2c0-1.2,1-2.2,2.2-2.2c1.2,0,2.2,1,2.2,2.2V138z
				 M156.2,169.4c-2.4,0-4.4-2-4.4-4.4v-4.4h8.8v4.4C160.6,167.4,158.6,169.4,156.2,169.4z M170.2,144.7l-8.6,11.4h-11l-8.6-11.4
				c-2.3-3-3.5-6.8-3.5-10.6c0-9.7,7.9-17.6,17.6-17.6s17.6,7.9,17.6,17.6C173.8,138,172.5,141.7,170.2,144.7z"/>
			<path class="st2" d="M156.9,121h-1.5c-4.4,0-8.1,3.6-8.1,8.1v0.7h4.4v-0.7c0-2,1.6-3.7,3.7-3.7h1.5c2,0,3.7,1.6,3.7,3.7
				c0,1.1-0.5,2.2-1.5,2.9l-4.7,3.5c-1.7,1.2-2.6,3.2-2.6,5.3v2.2h4.4v-2.2c0-0.7,0.3-1.3,0.9-1.8l4.7-3.5c2-1.5,3.2-3.9,3.2-6.4
				C165,124.6,161.3,121,156.9,121L156.9,121z"/>
			<path class="st2" d="M151.8,147.4h4.4v4.4h-4.4V147.4z"/>
			<path class="st2" d="M50.6,149.6H55v4.4h-4.4V149.6z"/>
			<path class="st2" d="M59.4,149.6h4.4v4.4h-4.4V149.6z"/>
			<path class="st2" d="M68.2,149.6h4.4v4.4h-4.4V149.6z"/>
			<path class="st2" d="M147.4,66h4.4v4.4h-4.4V66z"/>
			<path class="st2" d="M156.2,66h4.4v4.4h-4.4V66z"/>
			<path class="st2" d="M165,66h4.4v4.4H165V66z"/>
			<path class="st2" d="M131.2,85.8h3v3.1l8.6-8.6c3.6,4.7,9.3,7.7,15.6,7.7c10.9,0,19.8-8.9,19.8-19.8s-8.9-19.8-19.8-19.8
				s-19.8,8.9-19.8,19.8c0,2.9,0.7,5.7,1.8,8.3l-9.3,9.3C131.1,85.8,131.2,85.8,131.2,85.8z M158.4,52.8c8.5,0,15.4,6.9,15.4,15.4
				s-6.9,15.4-15.4,15.4S143,76.7,143,68.2S149.9,52.8,158.4,52.8z"/>
		</g>
	</g>
</g>
</svg>
